<svg width="23" height="19" viewBox="0 0 23 19" fill="none" xmlns="http://www.w3.org/2000/svg">
<path d="M2.25434 10.974C2.34131 10.988 2.42932 10.9944 2.51738 10.9933L17.5121 10.9933L17.1851 11.1435C16.8655 11.293 16.5748 11.4964 16.3259 11.7446L12.121 15.8991C11.5672 16.4214 11.4742 17.2616 11.9005 17.8899C12.3967 18.5595 13.3483 18.7048 14.0259 18.2146C14.0807 18.1749 14.1327 18.1317 14.1816 18.0853L21.7854 10.5726C22.3797 9.98611 22.3802 9.03477 21.7866 8.44765C21.7862 8.44728 21.7858 8.44685 21.7854 8.44648L14.1816 0.933784C13.5869 0.347841 12.624 0.349155 12.031 0.936742C11.9843 0.982992 11.9407 1.0322 11.9005 1.08404C11.4742 1.71233 11.5672 2.55258 12.121 3.0749L16.3183 7.23693C16.5414 7.45762 16.798 7.64267 17.0787 7.78536L17.5349 7.9882L2.60107 7.9882C1.8242 7.9597 1.14262 8.49587 0.996671 9.25034C0.862227 10.0695 1.42529 10.8411 2.25434 10.974Z" fill="#DC7000"/>
</svg>
