<svg width="67" height="65" viewBox="0 0 67 65" fill="none" xmlns="http://www.w3.org/2000/svg">
<ellipse cx="33.3147" cy="32.5" rx="32.8941" ry="32.5" fill="white"/>
<g clip-path="url(#clip0_1_166)">
<path d="M19.8411 29.3051C19.9844 29.3059 20.1221 29.2503 20.2238 29.1507L22.3796 27.0207C22.5909 26.8119 22.5909 26.4734 22.3796 26.2646C22.1682 26.0558 21.8256 26.0558 21.6143 26.2646L19.4585 28.3945C19.3565 28.4945 19.2991 28.6306 19.2991 28.7726C19.2991 28.9146 19.3565 29.0507 19.4585 29.1507C19.5602 29.2503 19.6979 29.3059 19.8411 29.3051V29.3051Z" fill="#DC7000"/>
<path d="M19.8411 32.5C19.9844 32.5008 20.1221 32.4452 20.2238 32.3456L25.6132 27.0207C25.8245 26.8119 25.8245 26.4734 25.6132 26.2646C25.4019 26.0558 25.0592 26.0558 24.8479 26.2646L19.4585 31.5894C19.3565 31.6894 19.2991 31.8255 19.2991 31.9675C19.2991 32.1095 19.3565 32.2456 19.4585 32.3456C19.5602 32.4452 19.6979 32.5008 19.8411 32.5V32.5Z" fill="#DC7000"/>
<path d="M47.8662 16.5254H33.8537C32.9607 16.5254 32.2369 17.2406 32.2369 18.1229V23.9802H19.8412C18.3529 23.9802 17.1465 25.1722 17.1465 26.6427V40.4873C17.1465 41.9577 18.3529 43.1497 19.8412 43.1497H25.7696V45.2797H24.1527C23.2598 45.2797 22.5359 45.9949 22.5359 46.8771C22.5359 47.7594 23.2598 48.4746 24.1527 48.4746H47.8662C48.7591 48.4746 49.483 47.7594 49.483 46.8771V18.1229C49.483 17.2406 48.7591 16.5254 47.8662 16.5254ZM19.8412 25.0452H39.2431C40.1361 25.0452 40.8599 25.7604 40.8599 26.6427V39.4223H18.2244V26.6427C18.2244 25.7604 18.9482 25.0452 19.8412 25.0452ZM18.2244 40.4873H40.8599C40.8599 41.3695 40.1361 42.0847 39.2431 42.0847H19.8412C18.9482 42.0847 18.2244 41.3695 18.2244 40.4873ZM26.8474 43.1497H32.2369V45.2797H26.8474V43.1497ZM33.8537 47.4096H24.1527C23.8551 47.4096 23.6138 47.1712 23.6138 46.8771C23.6138 46.583 23.8551 46.3446 24.1527 46.3446H34.9316C35.2292 46.3446 35.4705 46.583 35.4705 46.8771C35.4705 47.1712 35.2292 47.4096 34.9316 47.4096H33.8537ZM48.4051 46.8771C48.4051 47.1712 48.1638 47.4096 47.8662 47.4096H36.4514C36.6261 46.9214 36.5505 46.3799 36.2485 45.9566C35.9465 45.5334 35.4557 45.2811 34.9316 45.2797H33.3148V43.1497H39.2431C40.7314 43.1497 41.9378 41.9577 41.9378 40.4873V26.6427C41.9378 25.1722 40.7314 23.9802 39.2431 23.9802H33.3148V18.1229C33.3148 17.8288 33.556 17.5904 33.8537 17.5904H47.8662C48.1638 17.5904 48.4051 17.8288 48.4051 18.1229V46.8771Z" fill="#DC7000"/>
<path d="M46.2493 19.1879H35.4705C34.8752 19.1879 34.3926 19.6647 34.3926 20.2529V21.3178C34.3926 21.906 34.8752 22.3828 35.4705 22.3828H46.2493C46.8446 22.3828 47.3272 21.906 47.3272 21.3178V20.2529C47.3272 19.6647 46.8446 19.1879 46.2493 19.1879ZM35.4705 21.3178V20.2529H46.2493V21.3178H35.4705Z" fill="#DC7000"/>
<path d="M45.1715 27.1751C46.0645 27.1751 46.7883 26.4599 46.7883 25.5777C46.7883 24.6954 46.0645 23.9802 45.1715 23.9802C44.2786 23.9802 43.5547 24.6954 43.5547 25.5777C43.5547 26.4599 44.2786 27.1751 45.1715 27.1751ZM45.1715 25.0452C45.4692 25.0452 45.7105 25.2836 45.7105 25.5777C45.7105 25.8718 45.4692 26.1102 45.1715 26.1102C44.8739 26.1102 44.6326 25.8718 44.6326 25.5777C44.6326 25.2836 44.8739 25.0452 45.1715 25.0452Z" fill="#DC7000"/>
<path d="M46.7883 29.8376C46.7883 28.9553 46.0645 28.2401 45.1715 28.2401C44.2786 28.2401 43.5547 28.9553 43.5547 29.8376C43.5547 30.7198 44.2786 31.435 45.1715 31.435C46.0645 31.435 46.7883 30.7198 46.7883 29.8376ZM45.1715 30.3701C44.8739 30.3701 44.6326 30.1317 44.6326 29.8376C44.6326 29.5435 44.8739 29.3051 45.1715 29.3051C45.4692 29.3051 45.7105 29.5435 45.7105 29.8376C45.7105 30.1317 45.4692 30.3701 45.1715 30.3701Z" fill="#DC7000"/>
<path d="M38.1652 44.2147C37.8675 44.2147 37.6262 44.4531 37.6262 44.7472V45.8121C37.6262 46.1062 37.8675 46.3446 38.1652 46.3446C38.4628 46.3446 38.7041 46.1062 38.7041 45.8121V44.7472C38.7041 44.4531 38.4628 44.2147 38.1652 44.2147Z" fill="#DC7000"/>
<path d="M40.3209 44.2147C40.0233 44.2147 39.782 44.4531 39.782 44.7472V45.8121C39.782 46.1062 40.0233 46.3446 40.3209 46.3446C40.6186 46.3446 40.8599 46.1062 40.8599 45.8121V44.7472C40.8599 44.4531 40.6186 44.2147 40.3209 44.2147Z" fill="#DC7000"/>
<path d="M42.4767 44.2147C42.179 44.2147 41.9377 44.4531 41.9377 44.7472V45.8121C41.9377 46.1062 42.179 46.3446 42.4767 46.3446C42.7743 46.3446 43.0156 46.1062 43.0156 45.8121V44.7472C43.0156 44.4531 42.7743 44.2147 42.4767 44.2147Z" fill="#DC7000"/>
<path d="M44.6324 44.2147C44.3348 44.2147 44.0935 44.4531 44.0935 44.7472V45.8121C44.0935 46.1062 44.3348 46.3446 44.6324 46.3446C44.9301 46.3446 45.1714 46.1062 45.1714 45.8121V44.7472C45.1714 44.4531 44.9301 44.2147 44.6324 44.2147Z" fill="#DC7000"/>
<path d="M46.7882 44.2147C46.4906 44.2147 46.2493 44.4531 46.2493 44.7472V45.8121C46.2493 46.1062 46.4906 46.3446 46.7882 46.3446C47.0859 46.3446 47.3272 46.1062 47.3272 45.8121V44.7472C47.3272 44.4531 47.0859 44.2147 46.7882 44.2147Z" fill="#DC7000"/>
</g>
<defs>
<clipPath id="clip0_1_166">
<rect width="32.3365" height="31.9492" fill="white" transform="translate(17.1465 16.5254)"/>
</clipPath>
</defs>
</svg>
