<svg width="67" height="65" viewBox="0 0 67 65" fill="none" xmlns="http://www.w3.org/2000/svg">
<ellipse cx="33.1531" cy="32.5" rx="32.8941" ry="32.5" fill="white"/>
<g clip-path="url(#clip0_1_208)">
<path d="M35.2453 40.9055C33.5389 41.4681 31.6566 41.468 29.9452 40.9053C29.4657 40.7475 28.948 41.0038 28.7885 41.4773C28.629 41.9509 28.8882 42.4626 29.3676 42.6203C30.4097 42.963 31.5037 43.1342 32.5975 43.1342C33.6912 43.1342 34.7847 42.9628 35.8244 42.62C36.3036 42.462 36.5624 41.9502 36.4025 41.4767C36.2426 41.0033 35.7246 40.7477 35.2453 40.9055V40.9055Z" fill="#DC7000"/>
<path d="M43.2509 23.5315C42.8616 20.7727 40.4639 18.5951 37.4943 18.5951H36.4495V18.5309C36.4495 18.0318 36.0399 17.6271 35.5348 17.6271H29.6564C29.1512 17.6271 28.7417 18.0318 28.7417 18.5309V18.5951H27.6969C24.7521 18.5951 22.3512 20.7422 21.9429 23.5308C20.2283 23.9163 18.9443 25.4337 18.9443 27.2428V34.9868C18.9443 37.4634 20.9861 38.4728 21.9135 38.6906C22.3324 44.2659 27.0706 48.4746 32.5956 48.4746C38.2298 48.4746 42.8619 44.1544 43.2772 38.6908C45.6812 38.1269 46.2468 35.9719 46.2468 34.9869V27.2429C46.2469 25.4347 44.9642 23.9179 43.2509 23.5315V23.5315ZM36.4495 20.4025H37.4942C40.0823 20.4025 41.1515 22.4932 41.3737 23.4351H36.4495V20.4025ZM30.571 19.4346H34.6201V23.4351H30.571V19.4346ZM27.6969 20.4025H28.7417V23.4351H23.8212C24.4144 20.9796 26.6659 20.4025 27.6969 20.4025V20.4025ZM32.5956 46.6671C28.081 46.6671 24.2219 43.288 23.7594 38.7946H28.27C29.3925 38.7946 30.4907 38.3452 31.2832 37.5616C31.2879 37.557 31.2925 37.5523 31.2971 37.5475C31.6412 37.215 32.1133 37.0246 32.5956 37.0246C33.0779 37.0246 33.55 37.215 33.8941 37.5476C33.8986 37.5523 33.9033 37.557 33.908 37.5616C34.7005 38.3452 35.7987 38.7946 36.9212 38.7946H41.4314C40.9721 43.2109 37.1847 46.6671 32.5956 46.6671V46.6671ZM44.4175 34.9869C44.4175 36.1054 43.4948 36.9871 42.393 36.9871H36.9212C36.2875 36.9871 35.6676 36.7364 35.217 36.2986C35.212 36.2934 35.207 36.2884 35.2019 36.2833C34.5162 35.6058 33.5662 35.2172 32.5956 35.2172C31.6251 35.2172 30.6751 35.6058 29.9894 36.2833C29.9843 36.2883 29.9792 36.2934 29.9743 36.2985C29.5236 36.7364 28.9037 36.9871 28.27 36.9871H22.7982C21.6998 36.9871 20.7737 36.1091 20.7737 34.9869V27.2429C20.7737 26.1399 21.6819 25.2426 22.7982 25.2426H42.3929C43.5092 25.2426 44.4174 26.14 44.4174 27.2429V34.9869H44.4175Z" fill="#DC7000"/>
</g>
<defs>
<clipPath id="clip0_1_208">
<rect width="31.2215" height="30.8475" fill="white" transform="translate(16.9849 17.6271)"/>
</clipPath>
</defs>
</svg>
