<svg width="67" height="65" viewBox="0 0 67 65" fill="none" xmlns="http://www.w3.org/2000/svg">
<ellipse cx="33.3147" cy="32.5" rx="32.8941" ry="32.5" fill="white"/>
<g clip-path="url(#clip0_1_222)">
<path d="M46.6954 18.1779H21.0492C18.8948 18.1803 17.1489 19.9053 17.1465 22.0338V44.0677C17.1489 46.1963 18.8948 47.9213 21.0492 47.9237H46.6954C48.8498 47.9213 50.5956 46.1963 50.5981 44.0677V22.0338C50.5956 19.9053 48.8498 18.1803 46.6954 18.1779ZM49.483 44.0677C49.4812 45.5881 48.2342 46.8202 46.6954 46.822H21.0492C19.5104 46.8202 18.2634 45.5881 18.2615 44.0677V22.0338C18.2634 20.5135 19.5104 19.2814 21.0492 19.2796H46.6954C48.2342 19.2814 49.4812 20.5135 49.483 22.0338V44.0677Z" fill="#DC7000"/>
<path d="M46.6955 22.5847H21.0493C20.1255 22.5847 19.3767 23.3246 19.3767 24.2372V44.0677C19.3767 44.9804 20.1255 45.7203 21.0493 45.7203H46.6955C47.6192 45.7203 48.3681 44.9804 48.3681 44.0677V24.2372C48.3681 23.3246 47.6192 22.5847 46.6955 22.5847ZM33.8724 33.5267L27.8004 30.2966L33.8724 27.0664L39.9444 30.2966L33.8724 33.5267ZM40.5627 31.2187V37.6779L34.4299 40.9422V34.483L40.5627 31.2187ZM33.3149 34.483V40.9422L27.1821 37.6779V31.2187L33.3149 34.483ZM20.4918 24.2372C20.4918 23.933 20.7414 23.6864 21.0493 23.6864H33.3149V26.1101L26.3603 29.8118C26.353 29.8157 26.3447 29.8173 26.3374 29.8217C26.1688 29.9218 26.0661 30.1022 26.067 30.2966V34.9138L20.4918 37.668V24.2372ZM47.253 44.0677C47.253 44.372 47.0034 44.6186 46.6955 44.6186H21.0493C20.7414 44.6186 20.4918 44.372 20.4918 44.0677V38.8997L26.067 36.1454V38.0084C26.0671 38.211 26.1798 38.3971 26.3603 38.4932L33.6081 42.3491C33.7731 42.4368 33.9717 42.4368 34.1367 42.3491L41.3845 38.4932C41.565 38.3971 41.6777 38.211 41.6778 38.0084V36.1454L47.253 38.8997V44.0677ZM47.253 37.668L41.6778 34.9138V30.2966C41.6777 30.1028 41.5746 29.9233 41.4063 29.8239C41.399 29.8195 41.3906 29.8179 41.3834 29.814L34.4299 26.1101V23.6864H46.6955C47.0034 23.6864 47.253 23.933 47.253 24.2372V37.668Z" fill="#DC7000"/>
<path d="M20.4916 21.483C20.7995 21.483 21.0491 21.2364 21.0491 20.9322C21.0491 20.628 20.7995 20.3813 20.4916 20.3813C20.1837 20.3813 19.9341 20.628 19.9341 20.9322C19.9341 21.2364 20.1837 21.483 20.4916 21.483Z" fill="#DC7000"/>
<path d="M22.7216 21.483C23.0295 21.483 23.2791 21.2364 23.2791 20.9322C23.2791 20.628 23.0295 20.3813 22.7216 20.3813C22.4137 20.3813 22.1641 20.628 22.1641 20.9322C22.1641 21.2364 22.4137 21.483 22.7216 21.483Z" fill="#DC7000"/>
<path d="M24.9518 21.483C25.2597 21.483 25.5093 21.2364 25.5093 20.9322C25.5093 20.628 25.2597 20.3813 24.9518 20.3813C24.6439 20.3813 24.3943 20.628 24.3943 20.9322C24.3943 21.2364 24.6439 21.483 24.9518 21.483Z" fill="#DC7000"/>
<path d="M38.89 21.483H46.6954C47.0033 21.483 47.2529 21.2364 47.2529 20.9322C47.2529 20.628 47.0033 20.3813 46.6954 20.3813H38.89C38.5821 20.3813 38.3325 20.628 38.3325 20.9322C38.3325 21.2364 38.5821 21.483 38.89 21.483Z" fill="#DC7000"/>
</g>
<defs>
<clipPath id="clip0_1_222">
<rect width="33.4516" height="33.0508" fill="white" transform="translate(17.1465 16.5254)"/>
</clipPath>
</defs>
</svg>
