<svg xmlns="http://www.w3.org/2000/svg" xmlns:xlink="http://www.w3.org/1999/xlink" xmlns:svgjs="http://svgjs.com/svgjs" version="1.1" width="512" height="512" x="0" y="0" viewBox="0 0 48 48" style="enable-background:new 0 0 512 512" xml:space="preserve" class=""><g><g fill="#f5c12e"><path d="M24 18v12H7a5 5 0 0 1-5-5v-2a5 5 0 0 1 5-5zM24 34v12H7a5 5 0 0 1-5-5v-2a5 5 0 0 1 5-5zM24 2v12H7a5 5 0 0 1-5-5V7a5 5 0 0 1 5-5z" fill="#f5c12e" data-original="#f5c12e" class=""/></g><path fill="#f0ab00" d="M46 7v2a5 5 0 0 1-5 5H24V2h17a5 5 0 0 1 5 5zM46 23v2a5 5 0 0 1-5 5H24V18h17a5 5 0 0 1 5 5zM46 39v2a5 5 0 0 1-5 5H24V34h17a5 5 0 0 1 5 5z" data-original="#f0ab00"/></g></svg>