<svg width="67" height="65" viewBox="0 0 67 65" fill="none" xmlns="http://www.w3.org/2000/svg">
<ellipse cx="33.6043" cy="32.5" rx="32.8941" ry="32.5" fill="white"/>
<g clip-path="url(#clip0_1_147)">
<path d="M39.924 17.6271H27.2843C26.066 17.6271 25.074 18.6072 25.074 19.811V45.1886C25.074 46.3928 26.066 47.3729 27.2843 47.3729H39.9235C41.1423 47.3729 42.1343 46.3928 42.1343 45.189V19.811C42.1343 18.6072 41.1423 17.6271 39.924 17.6271ZM26.0775 21.5932H41.1307V40.4322H26.0775V21.5932ZM27.2843 18.6186H39.9235C40.5893 18.6186 41.1307 19.1536 41.1307 19.811V20.6017H26.0775V19.811C26.0775 19.1536 26.6189 18.6186 27.2843 18.6186ZM39.924 46.3814H27.2843C26.6189 46.3814 26.0775 45.8464 26.0775 45.189V41.4237H41.1307V45.189C41.1307 45.8464 40.5893 46.3814 39.924 46.3814Z" fill="#DC7000"/>
<path d="M33.6043 41.9195C32.4974 41.9195 31.5972 42.8089 31.5972 43.9025C31.5972 44.9962 32.4974 45.8856 33.6043 45.8856C34.7112 45.8856 35.6114 44.9962 35.6114 43.9025C35.6114 42.8089 34.7112 41.9195 33.6043 41.9195ZM33.6043 44.8941C33.0508 44.8941 32.6007 44.4494 32.6007 43.9025C32.6007 43.3557 33.0508 42.911 33.6043 42.911C34.1577 42.911 34.6078 43.3557 34.6078 43.9025C34.6078 44.4494 34.1577 44.8941 33.6043 44.8941Z" fill="#DC7000"/>
<path d="M31.5972 20.1059H33.6043C33.8818 20.1059 34.1061 19.8843 34.1061 19.6102C34.1061 19.336 33.8818 19.1144 33.6043 19.1144H31.5972C31.3198 19.1144 31.0955 19.336 31.0955 19.6102C31.0955 19.8843 31.3198 20.1059 31.5972 20.1059Z" fill="#DC7000"/>
<path d="M35.1094 20.1059H35.6112C35.8887 20.1059 36.113 19.8843 36.113 19.6102C36.113 19.336 35.8887 19.1144 35.6112 19.1144H35.1094C34.832 19.1144 34.6077 19.336 34.6077 19.6102C34.6077 19.8843 34.832 20.1059 35.1094 20.1059Z" fill="#DC7000"/>
<path d="M46.9575 19.8923C46.7613 19.6984 46.4442 19.6984 46.248 19.8923C46.0518 20.0861 46.0518 20.3994 46.248 20.5933C48.1226 22.4454 48.1226 25.4592 46.248 27.3118C46.0518 27.5057 46.0518 27.819 46.248 28.0128C46.3458 28.1095 46.4743 28.1581 46.6027 28.1581C46.7312 28.1581 46.8596 28.1095 46.9575 28.0128C49.2235 25.7745 49.2235 22.1311 46.9575 19.8923Z" fill="#DC7000"/>
<path d="M44.8444 21.0206C44.6483 20.8268 44.3311 20.8268 44.1349 21.0206C43.9387 21.2145 43.9387 21.5278 44.1349 21.7216C44.7556 22.3349 45.0973 23.1519 45.0973 24.0215C45.0973 24.891 44.7556 25.7076 44.1349 26.3208C43.9387 26.5147 43.9387 26.828 44.1349 27.0218C44.2328 27.1185 44.3612 27.1671 44.4897 27.1671C44.6181 27.1671 44.7466 27.1185 44.8444 27.0218C45.6548 26.2217 46.1009 25.1558 46.1009 24.0215C46.1009 22.8872 45.6553 21.8208 44.8444 21.0206Z" fill="#DC7000"/>
<path d="M20.9605 20.5933C21.1567 20.3994 21.1567 20.0861 20.9605 19.8923C20.7643 19.6984 20.4472 19.6984 20.251 19.8923C17.985 22.1311 17.985 25.774 20.251 28.0128C20.3489 28.1095 20.4773 28.1581 20.6058 28.1581C20.7342 28.1581 20.8627 28.1095 20.9605 28.0128C21.1567 27.819 21.1567 27.5057 20.9605 27.3118C19.0854 25.4597 19.0854 22.4459 20.9605 20.5933Z" fill="#DC7000"/>
<path d="M23.0736 20.8838C22.8774 20.6899 22.5603 20.6899 22.3641 20.8838C21.5537 21.6839 21.1077 22.7498 21.1077 23.8841C21.1077 25.0184 21.5537 26.0843 22.3641 26.885C22.462 26.9817 22.5904 27.0303 22.7189 27.0303C22.8473 27.0303 22.9758 26.9817 23.0736 26.885C23.2698 26.6912 23.2698 26.3778 23.0736 26.184C22.4529 25.5707 22.1112 24.7537 22.1112 23.8841C22.1112 23.0146 22.4524 22.1981 23.0736 21.5848C23.2693 21.3914 23.2693 21.0776 23.0736 20.8838Z" fill="#DC7000"/>
</g>
<defs>
<clipPath id="clip0_1_147">
<rect width="30.1064" height="29.7458" fill="white" transform="translate(18.551 17.6271)"/>
</clipPath>
</defs>
</svg>
