<svg width="66" height="65" viewBox="0 0 66 65" fill="none" xmlns="http://www.w3.org/2000/svg">
<ellipse cx="32.9216" cy="32.5" rx="32.8941" ry="32.5" fill="white"/>
<g clip-path="url(#clip0_1_240)">
<path d="M47.954 42.4496L47.2844 39.9806C47.1972 39.6591 46.8628 39.4681 46.5375 39.5545C46.2122 39.6407 46.0191 39.971 46.1063 40.2924L46.3995 41.3734L42.1204 38.9617V28.9385C42.1204 28.7229 42.0038 28.5236 41.8145 28.4162L32.973 23.3938V18.6211L33.7614 19.4001C33.9996 19.6354 34.3857 19.6354 34.6239 19.4001C34.8621 19.1648 34.8621 18.7833 34.6239 18.5479L32.7944 16.7404C32.556 16.5039 32.1656 16.5086 31.932 16.7404L30.1025 18.5479C29.8643 18.7832 29.8643 19.1647 30.1025 19.4001C30.3406 19.6353 30.7268 19.6353 30.965 19.4001L31.7534 18.6211V23.3949L22.9712 28.417C22.7828 28.5247 22.6668 28.7235 22.6668 28.9385V38.8643L18.3276 41.3006L18.6212 40.2177C18.7084 39.8962 18.5153 39.5659 18.19 39.4798C17.8646 39.3935 17.5303 39.5843 17.4431 39.9058L16.7735 42.3755C16.6888 42.6882 16.8783 43.0363 17.223 43.1182L19.7039 43.775C20.0318 43.8618 20.3643 43.6678 20.4508 43.349C20.538 43.0276 20.3449 42.6972 20.0196 42.6111L18.9613 42.3309L23.268 39.913L32.0922 45.0469C32.2811 45.1568 32.5157 45.1582 32.7063 45.0496L34.9432 43.7755C35.235 43.6093 35.3352 43.2409 35.167 42.9526C34.9988 42.6644 34.6259 42.5654 34.3341 42.7316L32.4049 43.8304L24.4913 39.2262L32.3248 34.8282L40.3092 39.3282L39.0877 40.024C38.7959 40.1902 38.6957 40.5586 38.8639 40.8469C39.0322 41.1352 39.4052 41.2342 39.6968 41.0679L41.5367 40.02L45.7679 42.4047L44.7082 42.6852C44.3828 42.7713 44.1898 43.1017 44.277 43.4231C44.3637 43.743 44.6969 43.9358 45.0238 43.8492L47.4679 43.2022C47.8169 43.1413 48.0476 42.7948 47.954 42.4496V42.4496ZM40.9007 38.2742L32.9729 33.8061V24.7838L40.9007 29.2871V38.2742ZM23.8865 29.286L31.7533 24.7873V33.7628L23.8865 38.1796V29.286Z" fill="#DC7000"/>
<path d="M36.9978 42.4724C37.3346 42.4724 37.6076 42.2026 37.6076 41.8699C37.6076 41.5371 37.3346 41.2673 36.9978 41.2673C36.661 41.2673 36.3879 41.5371 36.3879 41.8699C36.3879 42.2026 36.661 42.4724 36.9978 42.4724Z" fill="#DC7000"/>
</g>
<defs>
<clipPath id="clip0_1_240">
<rect width="31.2215" height="30.8475" fill="white" transform="translate(16.7534 15.4237)"/>
</clipPath>
</defs>
</svg>
